<svg xmlns="http://www.w3.org/2000/svg" xmlns:xlink="http://www.w3.org/1999/xlink" xmlns:lucid="lucid" width="1680" height="746.46"><g transform="translate(-80 -220)" lucid:page-tab-id="0_0"><path d="M0 0h1870.87v1322.83H0z" fill="#fff"/><path d="M430 526a6 6 0 0 1 6-6h148a6 6 0 0 1 6 6v108a6 6 0 0 1-6 6H436a6 6 0 0 1-6-6z" stroke="#3a414a" fill="#ffdda6"/><use xlink:href="#a" transform="matrix(1,0,0,1,442,532) translate(18.648148148148145 53.77777777777778)"/><path d="M320.38 580.5h-59.42v-1h59.42zm92.77 0h-43.53v-1h43.53z" stroke="#3a414a" stroke-width=".05" fill="#3a414a"/><path d="M260.98 580.5h-.52v-1h.52z" fill="#3a414a"/><path d="M261 580.52h-.56v-1.04h.56zm-.5-1v.96h.45v-.96z" stroke="#3a414a" stroke-width=".05" fill="#3a414a"/><path d="M427.92 580l-14.27 4.64v-9.28z" fill="#3a414a"/><path d="M429.54 580l-16.4 5.32v-10.64zm-15.4 3.95L426.3 580l-12.15-3.95z" stroke="#3a414a" stroke-width=".05" fill="#3a414a"/><use xlink:href="#b" transform="matrix(1,0,0,1,320.38219921861145,569.3333333333334) translate(0 14.222222222222223)"/><path d="M260.98 329.85H504a6 6 0 0 1 6 6v167.3" stroke="#3a414a" fill="none"/><path d="M261 330.35h-.52v-1h.52z" stroke="#3a414a" stroke-width=".05" fill="#3a414a"/><path d="M510 517.92l-4.64-14.27h9.28z" stroke="#3a414a" fill="#fff"/><path d="M281.9 821.57h-5.08v-1h5.07zm15.2 0h-10.14v-1h10.14zm15.2 0h-10.13v-1h10.14zm15.2 0H317.4v-1h10.13zm15.22-.02h-10.14v-1h10.14zm15.2 0H347.8v-1h10.13zm15.22 0H363v-1h10.14zm15.2 0h-10.13v-1h10.14zm15.2-.02h-10.13v-1h10.15zm15.22 0h-10.14v-1h10.14zm15.2 0h-10.13v-1h10.14zm15.22 0h-10.14v-1h10.14zm15.2-.02l-10.13.02v-1h10.13zm15.2 0h-10.13v-1h10.14zm15.22 0h-10.14v-1h10.14zm15.7-6.4l-.08 1-.24.98-.4.94-.52.87-.66.77-.78.66-.87.54-.94.4-1 .23h-5.13v-1h5l.83-.2.8-.33.73-.45.66-.56.55-.66.45-.73.33-.8.2-.84.07-.88v-4.8h1zm0-9.7h-1v-9.67h1zm0-14.5h-1v-9.68h1zm0-14.52h-1v-9.67h1zm0-14.5h-1v-9.68h1zm0-14.52h-1v-9.67h1zm0-14.5h-1v-4.15h1zm0-29.02h-1v-9.68h1zm0-14.5h-1v-9.7h1zm0-14.52h-1v-9.67h1zm0-14.5h-1v-9.68h1zm0-14.52h-1v-4.84h1z" stroke="#3a414a" stroke-width=".05" fill="#3a414a"/><path d="M510.5 640.98h-1v-.52h1z" fill="#3a414a"/><path d="M510.52 641h-1.04v-.56h1.04zm-1-.5v.45h.96v-.46z" stroke="#3a414a" stroke-width=".05" fill="#3a414a"/><path d="M276.32 825.7l-14.27-4.63 14.27-4.63z" fill="#3a414a"/><path d="M276.82 826.4l-16.38-5.33 16.38-5.32zm-13.15-5.33l12.15 3.95v-7.9z" stroke="#3a414a" stroke-width=".05" fill="#3a414a"/><use xlink:href="#c" transform="matrix(1,0,0,1,489.28395061728395,707.3806361194517) translate(0 14.222222222222223)"/><path d="M760 526a6 6 0 0 1 6-6h148a6 6 0 0 1 6 6v108a6 6 0 0 1-6 6H766a6 6 0 0 1-6-6z" stroke="#3a414a" fill="#c3f7c8"/><use xlink:href="#d" transform="matrix(1,0,0,1,772,532) translate(39.01851851851852 38.77777777777778)"/><use xlink:href="#e" transform="matrix(1,0,0,1,772,532) translate(16.85802469135802 65.44444444444446)"/><path d="M650.38 580.5h-59.42v-1h59.42zm92.77 0h-43.53v-1h43.53z" stroke="#3a414a" stroke-width=".05" fill="#3a414a"/><path d="M590.98 580.5h-.52v-1h.52z" fill="#3a414a"/><path d="M591 580.52h-.56v-1.04h.56zm-.5-1v.96h.45v-.96z" stroke="#3a414a" stroke-width=".05" fill="#3a414a"/><path d="M757.92 580l-14.27 4.64v-9.28z" fill="#3a414a"/><path d="M759.54 580l-16.4 5.32v-10.64zm-15.4 3.95L756.3 580l-12.15-3.95z" stroke="#3a414a" stroke-width=".05" fill="#3a414a"/><use xlink:href="#b" transform="matrix(1,0,0,1,650.3827160493827,569.3333333333334) translate(0 14.222222222222223)"/><path d="M281.87 860.5h-5.02v-1h5.02zm15.1 0H286.9v-1h10.06zm15.07 0H302v-1h10.04zm15.08 0h-10.05v-1h10.05zm15.1 0h-10.07v-1h10.06zm15.07 0h-10.06v-1h10.05zm15.08 0h-10.06v-1h10.06zm15.08 0H377.4v-1h10.06zm15.08-.02H392.5v-1h10.04zm15.1 0h-10.07v-1h10.06zm15.07 0h-10.05v-1h10.06zm15.1 0h-10.06v-1h10.05zm15.08 0h-10.06v-1h10.06zm15.08 0H467.9v-1h10.06zm15.08 0H483v-1h10.04zm15.1 0h-10.07v-1h10.06zm15.07 0h-10.04v-1h10.05zm15.1 0h-10.06v-1h10.05zm15.08-.02h-10.06v-1h10.06zm15.08 0H558.4v-1h10.06zm15.1 0h-10.07v-1h10.05zm15.07 0h-10.06v-1h10.06zm15.08 0h-10.04v-1h10.05zm15.1 0h-10.06v-1h10.06zm15.08 0h-10.06v-1h10.06zm15.08 0H648.9v-1h10.06zm15.1 0h-10.07v-1h10.05zm15.07 0h-10.05v-1h10.05zm15.08-.02h-10.04v-1h10.05zm15.1 0h-10.06v-1h10.06zm15.08 0h-10.05v-1h10.05zm15.1 0H739.4v-1h10.06zm15.07 0H754.5v-1h10.05zm15.08 0h-10.05v-1h10.05zm15.1 0h-10.07v-1h10.06zm15.07 0h-10.06v-1h10.06zm15.08 0h-10.05v-1h10.05zM840.5 854l-.08 1-.24 1-.4.93-.52.87-.66.78-.78.66-.87.53-.94.38-1 .25h-5.1v-1h4.98l.82-.2.8-.33.73-.45.66-.56.55-.67.45-.73.33-.8.2-.84.07-.88v-5.05h1zm0-10.16h-1V833.7h1zm0-15.22h-1V818.5h1zm0-15.22h-1v-10.14h1zm0-15.22h-1v-10.14h1zm0-15.2h-1v-10.16h1zm0-15.23h-1v-10.14h1zm0-15.22h-1V742.4h1zm0-15.2h-1v-2.12h1zm0-23.45h-1v-1.92h1zm0-7h-1v-10.14h1zm0-15.2h-1v-10.16h1zm0-15.23h-1v-10.15h1zm0-15.22h-1V651.1h1zm0-15.2h-1v-5.1h1z" stroke="#3a414a" stroke-width=".05" fill="#3a414a"/><path d="M840.5 640.98h-1v-.52h1z" fill="#3a414a"/><path d="M840.52 641h-1.04v-.56h1.04zm-1-.5v.45h.96v-.46z" stroke="#3a414a" stroke-width=".05" fill="#3a414a"/><path d="M276.35 864.64L262.08 860l14.27-4.64z" fill="#3a414a"/><path d="M276.85 865.32l-16.4-5.32 16.4-5.32zM263.7 860l12.15 3.95v-7.9z" stroke="#3a414a" stroke-width=".05" fill="#3a414a"/><use xlink:href="#c" transform="matrix(1,0,0,1,819.283950617284,713.8995583743442) translate(0 14.222222222222223)"/><path d="M1160 526a6 6 0 0 1 6-6h148a6 6 0 0 1 6 6v108a6 6 0 0 1-6 6h-148a6 6 0 0 1-6-6z" stroke="#3a414a" fill="#c3f7c8"/><use xlink:href="#f" transform="matrix(1,0,0,1,1172,532) translate(43.37037037037037 38.77777777777778)"/><use xlink:href="#e" transform="matrix(1,0,0,1,1172,532) translate(16.85802469135802 65.44444444444446)"/><path d="M967.04 580.5h-46.08v-1h46.08zm176.1 0h-30.18v-1h30.2z" stroke="#3a414a" stroke-width=".05" fill="#3a414a"/><path d="M920.98 580.5h-.52v-1h.52z" fill="#3a414a"/><path d="M921 580.52h-.56v-1.04h.56zm-.5-1v.96h.45v-.96z" stroke="#3a414a" stroke-width=".05" fill="#3a414a"/><path d="M1157.92 580l-14.27 4.64v-9.28z" fill="#3a414a"/><path d="M1159.54 580l-16.4 5.32v-10.64zm-15.4 3.95l12.16-3.95-12.15-3.95z" stroke="#3a414a" stroke-width=".05" fill="#3a414a"/><use xlink:href="#g" transform="matrix(1,0,0,1,967.0370370370371,569.3333333333334) translate(0 14.222222222222223)"/><path d="M1580 526a6 6 0 0 1 6-6h148a6 6 0 0 1 6 6v108a6 6 0 0 1-6 6h-148a6 6 0 0 1-6-6z" stroke="#3a414a" fill="#c3f7c8"/><use xlink:href="#h" transform="matrix(1,0,0,1,1585,525) translate(34.876543209876544 45.27777777777778)"/><use xlink:href="#e" transform="matrix(1,0,0,1,1585,525) translate(23.85802469135802 71.94444444444446)"/><path d="M1406.64 580.5h-85.68v-1h85.68zm156.5 0h-69.78v-1h69.8z" stroke="#3a414a" stroke-width=".05" fill="#3a414a"/><path d="M1320.98 580.5h-.52v-1h.52z" fill="#3a414a"/><path d="M1321 580.52h-.56v-1.04h.56zm-.5-1v.96h.45v-.96z" stroke="#3a414a" stroke-width=".05" fill="#3a414a"/><path d="M1577.92 580l-14.27 4.64v-9.28z" fill="#3a414a"/><path d="M1579.54 580l-16.4 5.32v-10.64zm-15.4 3.95l12.16-3.95-12.15-3.95z" stroke="#3a414a" stroke-width=".05" fill="#3a414a"/><use xlink:href="#i" transform="matrix(1,0,0,1,1406.641975308642,569.3333333333334) translate(0 14.222222222222223)"/><path d="M260.95 284.22H1654a6 6 0 0 1 6 6v212.93" stroke="#3a414a" fill="none"/><path d="M260.97 284.72h-.52v-1h.52z" stroke="#3a414a" stroke-width=".05" fill="#3a414a"/><path d="M1660 517.92l-4.64-14.27h9.28z" stroke="#3a414a" fill="#fff"/><path d="M281.87 903.3h-5v-1h5zm14.98 0h-10v-1h10zm14.98 0h-10v-1h10zm14.98 0h-9.98v-1h10zm15 0h-10v-1h9.98zm14.96 0h-9.98v-1h9.98zm14.98 0h-9.98v-1h9.98zm14.98 0h-9.98v-1h9.98zm14.98 0h-10v-1h10zm14.98 0h-10v-1h10zm14.98 0h-10v-1h10zm14.98 0h-10v-1h10zm14.98 0h-10v-1h10zm14.98 0h-10v-1h10zm14.97 0h-9.98v-1h9.97zm14.98 0h-9.98v-1h9.98zm14.98 0h-9.98v-1h9.98zm14.98 0h-9.97v-1h9.98zm15 0h-10v-1h10zm14.97 0h-10v-1h10zm14.98 0h-10v-1h10zm14.98 0h-10v-1h10zm14.98-.02h-9.98v-1h10zm14.98 0h-9.98v-1h9.98zm14.98 0h-9.98v-1h9.98zm14.98 0h-9.98v-1h9.98zm14.98 0h-9.98v-1h9.98zm14.98 0h-10v-1h10zm14.98 0h-10v-1h10zm14.98 0h-10v-1h10zm14.98 0h-10v-1h10zm14.98 0h-10v-1h10zm14.98 0h-10v-1h10zm14.97 0h-9.98v-1h9.97zm14.98 0h-9.98v-1h9.98zm14.98 0h-9.98v-1h9.98zm14.98 0h-9.97v-1h9.98zm15 0h-10v-1h10zm14.97 0h-10v-1h10zm14.98 0h-10v-1h10zm14.98 0h-10v-1h10zm14.98 0h-9.98v-1h10zm14.98 0H901v-1h9.98zm14.98 0h-9.98v-1h9.98zm14.98 0h-9.98v-1h9.98zm14.98 0h-9.98v-1h9.98zm14.98 0h-10v-1h10zm14.98-.02h-10v-1h10zm14.98 0h-10v-1h10zm14.98 0h-10v-1h10zm14.98 0h-10v-1h10zm14.98 0h-10v-1h10zm14.97 0h-9.98v-1h9.97zm14.98 0h-9.98v-1h9.98zm14.98 0h-9.98v-1h9.98zm14.98 0h-9.98v-1h10zm15 0h-10v-1h10zm14.97 0h-10v-1h10zm14.98 0h-10v-1h10zm14.98 0h-10v-1h10zm14.98 0h-9.98v-1h10zm14.98 0h-9.98v-1h9.98zm14.98 0h-9.98v-1h9.98zm14.98 0h-9.98v-1h9.98zm14.98 0h-9.98v-1h9.98zm14.98 0h-10v-1h10zm14.98 0h-10v-1h10zm14.98 0h-10v-1h10zm14.98 0h-10v-1h10zm14.98 0h-10v-1h10zm14.97 0h-10v-1h10zm14.97 0h-9.98v-1h9.97zm14.98-.02h-9.98v-1h9.98zm14.98 0h-9.98v-1h9.98zm14.98 0h-9.98v-1h10zm15 0h-10v-1h10zm14.97 0h-10v-1h10zm14.98 0h-10v-1h10zm14.98 0h-10v-1h10zm14.98 0h-9.98v-1h10zm14.98 0h-9.98v-1h9.98zm14.98 0h-9.98v-1h9.98zm14.98 0h-9.98v-1h9.98zm14.98 0h-9.98v-1h9.98zm14.98 0h-10v-1h10zm14.98 0h-10v-1h10zm14.98 0h-10v-1h10zm14.98 0h-10v-1h10zm14.98 0h-10v-1h10zm14.97 0h-10v-1h10zm14.97 0H1620v-1h9.97zm14.98 0h-9.98v-1h9.98zm15.55-6.42l-.08 1-.24 1-.4.93-.52.87-.66.78-.78.66-.87.54-.94.4-1 .23h-5.05v-1h4.93l.82-.2.8-.33.73-.45.66-.56.55-.67.45-.73.33-.8.2-.84.07-.88v-5h1zm0-10.05h-1v-10.03h1zm0-15.05h-1V861.7h1zm0-15.05h-1v-10.03h1zm0-15.05h-1V831.6h1zm0-15.05h-1v-10.03h1zm0-15.05h-1V801.5h1zm0-15.05h-1v-10.03h1zm0-15.05h-1V771.4h1zm0-15.05h-1v-6.7h1zm0-30.1h-1v-10.03h1zm0-15.04h-1V711.2h1zm0-15.05h-1v-10.04h1zm0-15.05h-1V681.1h1zm0-15.05h-1v-10.03h1zm0-15.05h-1V651h1zm0-15.05h-1v-5.02h1z" stroke="#3a414a" stroke-width=".05" fill="#3a414a"/><path d="M1660.5 640.98h-1v-.52h1z" fill="#3a414a"/><path d="M1660.53 641h-1.06v-.56h1.06zm-1-.5v.45h.94v-.46z" stroke="#3a414a" stroke-width=".05" fill="#3a414a"/><path d="M276.38 907.44l-14.27-4.64 14.28-4.63z" fill="#3a414a"/><path d="M276.88 908.13l-16.4-5.33 16.4-5.32zm-13.15-5.33l12.15 3.95v-7.9z" stroke="#3a414a" stroke-width=".05" fill="#3a414a"/><use xlink:href="#c" transform="matrix(1,0,0,1,1639.2839506172838,738.3450000616583) translate(0 14.222222222222223)"/><path d="M180 531.5v-45.94a6 6 0 0 1 6-6h1425.66a6 6 0 0 1 6 6v17.6M180 531.5v3.5" stroke="#3a414a" fill="none"/><path d="M1617.66 517.94l-4.63-14.27h9.27z" stroke="#3a414a" fill="#fff"/><path d="M1706.4 656.82l-.08 298.64-.25 1-.4.95-.52.88-.66.78-.8.66-.86.54-.94.4-1 .22-1 .08L185 960.9l-1-.25-.95-.4-.87-.53-.78-.66-.66-.78-.53-.87-.38-.93-.24-1-.08-1v-33.5h1v33.47l.07.88.2.84.33.8.45.74.56.65.67.56.73.46.8.33.82.2 1514.75.06.88-.07.84-.2.8-.34.72-.45.66-.55.56-.65.45-.74.32-.8.2-.82.07-298.52z" stroke="#3a414a" stroke-width=".05" fill="#3a414a"/><path d="M180.5 920.98h-1v-.52h1z" fill="#3a414a"/><path d="M180.53 921h-1.06v-.56h1.06zm-1-.5v.45h.94v-.46z" stroke="#3a414a" stroke-width=".05" fill="#3a414a"/><path d="M1710.53 656.32h-9.27l4.63-14.26z" fill="#fff"/><path d="M1711.2 656.82h-10.63l5.32-16.38zm-9.26-1h7.9l-3.95-12.14z" stroke="#3a414a" stroke-width=".05" fill="#3a414a"/><path d="M100 246a6 6 0 0 1 6-6h148a6 6 0 0 1 6 6v108a6 6 0 0 1-6 6H106a6 6 0 0 1-6-6zm16-6v120m-16-104h160" stroke="#3a414a" fill="#c3f7c8"/><use xlink:href="#j" transform="matrix(1,0,0,1,121,261) translate(27.524691358024683 38.34027777777778)"/><use xlink:href="#k" transform="matrix(1,0,0,1,121,261) translate(28.75925925925926 65.00694444444446)"/><path d="M100 545.92a6.8 6.8 0 0 1 5.95-6.74l148.1-18.44A5.3 5.3 0 0 1 260 526v108a6 6 0 0 1-6 6H106a6 6 0 0 1-6-6z" stroke="#3a414a" fill="#c3f7c8"/><g><use xlink:href="#l" transform="matrix(1,0,0,1,105,545) translate(50.308641975308646 48.71527777777778)"/></g><path d="M100 825.92a6.8 6.8 0 0 1 5.95-6.74l148.1-18.44A5.3 5.3 0 0 1 260 806v108a6 6 0 0 1-6 6H106a6 6 0 0 1-6-6z" stroke="#3a414a" fill="#c3f7c8"/><g><use xlink:href="#m" transform="matrix(1,0,0,1,105,825) translate(41.66666666666667 48.71527777777778)"/></g><defs><path fill="#3a414a" d="M185-189c-5-48-123-54-124 2 14 75 158 14 163 119 3 78-121 87-175 55-17-10-28-26-33-46l33-7c5 56 141 63 141-1 0-78-155-14-162-118-5-82 145-84 179-34 5 7 8 16 11 25" id="n"/><path fill="#3a414a" d="M84 4C-5 8 30-112 23-190h32v120c0 31 7 50 39 49 72-2 45-101 50-169h31l1 190h-30c-1-10 1-25-2-33-11 22-28 36-60 37" id="o"/><path fill="#3a414a" d="M115-194c53 0 69 39 70 98 0 66-23 100-70 100C84 3 66-7 56-30L54 0H23l1-261h32v101c10-23 28-34 59-34zm-8 174c40 0 45-34 45-75 0-40-5-75-45-74-42 0-51 32-51 76 0 43 10 73 51 73" id="p"/><path fill="#3a414a" d="M135-143c-3-34-86-38-87 0 15 53 115 12 119 90S17 21 10-45l28-5c4 36 97 45 98 0-10-56-113-15-118-90-4-57 82-63 122-42 12 7 21 19 24 35" id="q"/><path fill="#3a414a" d="M59-47c-2 24 18 29 38 22v24C64 9 27 4 27-40v-127H5v-23h24l9-43h21v43h35v23H59v120" id="r"/><path fill="#3a414a" d="M24-231v-30h32v30H24zM24 0v-190h32V0H24" id="s"/><path fill="#3a414a" d="M100-194c63 0 86 42 84 106H49c0 40 14 67 53 68 26 1 43-12 49-29l28 8c-11 28-37 45-77 45C44 4 14-33 15-96c1-61 26-98 85-98zm52 81c6-60-76-77-97-28-3 7-6 17-6 28h103" id="t"/><g id="a"><use transform="matrix(0.06172839506172839,0,0,0.06172839506172839,0,0)" xlink:href="#n"/><use transform="matrix(0.06172839506172839,0,0,0.06172839506172839,14.814814814814813,0)" xlink:href="#o"/><use transform="matrix(0.06172839506172839,0,0,0.06172839506172839,27.160493827160494,0)" xlink:href="#p"/><use transform="matrix(0.06172839506172839,0,0,0.06172839506172839,39.50617283950617,0)" xlink:href="#q"/><use transform="matrix(0.06172839506172839,0,0,0.06172839506172839,50.61728395061728,0)" xlink:href="#r"/><use transform="matrix(0.06172839506172839,0,0,0.06172839506172839,56.79012345679012,0)" xlink:href="#s"/><use transform="matrix(0.06172839506172839,0,0,0.06172839506172839,61.666666666666664,0)" xlink:href="#r"/><use transform="matrix(0.06172839506172839,0,0,0.06172839506172839,67.8395061728395,0)" xlink:href="#o"/><use transform="matrix(0.06172839506172839,0,0,0.06172839506172839,80.18518518518519,0)" xlink:href="#r"/><use transform="matrix(0.06172839506172839,0,0,0.06172839506172839,86.35802469135803,0)" xlink:href="#t"/></g><path fill="#333" d="M137-138c1-29-70-34-71-4 15 46 118 7 119 86 1 83-164 76-172 9l43-7c4 19 20 25 44 25 33 8 57-30 24-41C81-84 22-81 20-136c-2-80 154-74 161-7" id="u"/><path fill="#333" d="M115-3C79 11 28 4 28-45v-112H4v-33h27l15-45h31v45h36v33H77v99c-1 23 16 31 38 25v30" id="v"/><path fill="#333" d="M135-150c-39-12-60 13-60 57V0H25l-1-190h47c2 13-1 29 3 40 6-28 27-53 61-41v41" id="w"/><path fill="#333" d="M25-224v-37h50v37H25zM25 0v-190h50V0H25" id="x"/><path fill="#333" d="M135-194c87-1 58 113 63 194h-50c-7-57 23-157-34-157-59 0-34 97-39 157H25l-1-190h47c2 12-1 28 3 38 12-26 28-41 61-42" id="y"/><path fill="#333" d="M195-6C206 82 75 100 31 46c-4-6-6-13-8-21l49-6c3 16 16 24 34 25 40 0 42-37 40-79-11 22-30 35-61 35-53 0-70-43-70-97 0-56 18-96 73-97 30 0 46 14 59 34l2-30h47zm-90-29c32 0 41-27 41-63 0-35-9-62-40-62-32 0-39 29-40 63 0 36 9 62 39 62" id="z"/><g id="b"><use transform="matrix(0.04938271604938272,0,0,0.04938271604938272,0,0)" xlink:href="#u"/><use transform="matrix(0.04938271604938272,0,0,0.04938271604938272,9.876543209876544,0)" xlink:href="#v"/><use transform="matrix(0.04938271604938272,0,0,0.04938271604938272,15.753086419753087,0)" xlink:href="#w"/><use transform="matrix(0.04938271604938272,0,0,0.04938271604938272,22.66666666666667,0)" xlink:href="#x"/><use transform="matrix(0.04938271604938272,0,0,0.04938271604938272,27.604938271604947,0)" xlink:href="#y"/><use transform="matrix(0.04938271604938272,0,0,0.04938271604938272,38.41975308641976,0)" xlink:href="#z"/></g><path fill="#333" d="M185-48c-13 30-37 53-82 52C43 2 14-33 14-96s30-98 90-98c62 0 83 45 84 108H66c0 31 8 55 39 56 18 0 30-7 34-22zm-45-69c5-46-57-63-70-21-2 6-4 13-4 21h74" id="A"/><path fill="#333" d="M110-194c64 0 96 36 96 99 0 64-35 99-97 99-61 0-95-36-95-99 0-62 34-99 96-99zm-1 164c35 0 45-28 45-65 0-40-10-65-43-65-34 0-45 26-45 65 0 36 10 65 43 65" id="B"/><g id="c"><use transform="matrix(0.04938271604938272,0,0,0.04938271604938272,0,0)" xlink:href="#A"/><use transform="matrix(0.04938271604938272,0,0,0.04938271604938272,9.876543209876544,0)" xlink:href="#w"/><use transform="matrix(0.04938271604938272,0,0,0.04938271604938272,16.790123456790127,0)" xlink:href="#w"/><use transform="matrix(0.04938271604938272,0,0,0.04938271604938272,23.70370370370371,0)" xlink:href="#B"/><use transform="matrix(0.04938271604938272,0,0,0.04938271604938272,34.518518518518526,0)" xlink:href="#w"/></g><path fill="#3a414a" d="M30-248c87 1 191-15 191 75 0 78-77 80-158 76V0H30v-248zm33 125c57 0 124 11 124-50 0-59-68-47-124-48v98" id="C"/><path fill="#3a414a" d="M141-36C126-15 110 5 73 4 37 3 15-17 15-53c-1-64 63-63 125-63 3-35-9-54-41-54-24 1-41 7-42 31l-33-3c5-37 33-52 76-52 45 0 72 20 72 64v82c-1 20 7 32 28 27v20c-31 9-61-2-59-35zM48-53c0 20 12 33 32 33 41-3 63-29 60-74-43 2-92-5-92 41" id="D"/><path fill="#3a414a" d="M114-163C36-179 61-72 57 0H25l-1-190h30c1 12-1 29 2 39 6-27 23-49 58-41v29" id="E"/><g id="d"><use transform="matrix(0.06172839506172839,0,0,0.06172839506172839,0,0)" xlink:href="#C"/><use transform="matrix(0.06172839506172839,0,0,0.06172839506172839,14.814814814814813,0)" xlink:href="#D"/><use transform="matrix(0.06172839506172839,0,0,0.06172839506172839,27.160493827160494,0)" xlink:href="#E"/><use transform="matrix(0.06172839506172839,0,0,0.06172839506172839,34.50617283950617,0)" xlink:href="#q"/><use transform="matrix(0.06172839506172839,0,0,0.06172839506172839,45.61728395061728,0)" xlink:href="#t"/></g><path fill="#3a414a" d="M212-179c-10-28-35-45-73-45-59 0-87 40-87 99 0 60 29 101 89 101 43 0 62-24 78-52l27 14C228-24 195 4 139 4 59 4 22-46 18-125c-6-104 99-153 187-111 19 9 31 26 39 46" id="F"/><path fill="#3a414a" d="M100-194c62-1 85 37 85 99 1 63-27 99-86 99S16-35 15-95c0-66 28-99 85-99zM99-20c44 1 53-31 53-75 0-43-8-75-51-75s-53 32-53 75 10 74 51 75" id="G"/><path fill="#3a414a" d="M210-169c-67 3-38 105-44 169h-31v-121c0-29-5-50-35-48C34-165 62-65 56 0H25l-1-190h30c1 10-1 24 2 32 10-44 99-50 107 0 11-21 27-35 58-36 85-2 47 119 55 194h-31v-121c0-29-5-49-35-48" id="H"/><path fill="#3a414a" d="M117-194c89-4 53 116 60 194h-32v-121c0-31-8-49-39-48C34-167 62-67 57 0H25l-1-190h30c1 10-1 24 2 32 11-22 29-35 61-36" id="I"/><path fill="#3a414a" d="M85-194c31 0 48 13 60 33l-1-100h32l1 261h-30c-2-10 0-23-3-31C134-8 116 4 85 4 32 4 16-35 15-94c0-66 23-100 70-100zm9 24c-40 0-46 34-46 75 0 40 6 74 45 74 42 0 51-32 51-76 0-42-9-74-50-73" id="J"/><g id="e"><use transform="matrix(0.06172839506172839,0,0,0.06172839506172839,0,0)" xlink:href="#F"/><use transform="matrix(0.06172839506172839,0,0,0.06172839506172839,15.987654320987653,0)" xlink:href="#G"/><use transform="matrix(0.06172839506172839,0,0,0.06172839506172839,28.333333333333332,0)" xlink:href="#H"/><use transform="matrix(0.06172839506172839,0,0,0.06172839506172839,46.79012345679012,0)" xlink:href="#H"/><use transform="matrix(0.06172839506172839,0,0,0.06172839506172839,65.24691358024691,0)" xlink:href="#D"/><use transform="matrix(0.06172839506172839,0,0,0.06172839506172839,77.5925925925926,0)" xlink:href="#I"/><use transform="matrix(0.06172839506172839,0,0,0.06172839506172839,89.93827160493828,0)" xlink:href="#J"/></g><path fill="#3a414a" d="M160-131c35 5 61 23 61 61C221 17 115-2 30 0v-248c76 3 177-17 177 60 0 33-19 50-47 57zm-97-11c50-1 110 9 110-42 0-47-63-36-110-37v79zm0 115c55-2 124 14 124-45 0-56-70-42-124-44v89" id="K"/><path fill="#3a414a" d="M24 0v-261h32V0H24" id="L"/><g id="f"><use transform="matrix(0.06172839506172839,0,0,0.06172839506172839,0,0)" xlink:href="#K"/><use transform="matrix(0.06172839506172839,0,0,0.06172839506172839,14.814814814814813,0)" xlink:href="#o"/><use transform="matrix(0.06172839506172839,0,0,0.06172839506172839,27.160493827160494,0)" xlink:href="#s"/><use transform="matrix(0.06172839506172839,0,0,0.06172839506172839,32.03703703703704,0)" xlink:href="#L"/><use transform="matrix(0.06172839506172839,0,0,0.06172839506172839,36.91358024691358,0)" xlink:href="#J"/></g><path fill="#333" d="M24-248c93 1 206-16 204 79-1 75-69 88-152 82V0H24v-248zm52 121c47 0 100 7 100-41 0-47-54-39-100-39v80" id="M"/><path fill="#333" d="M133-34C117-15 103 5 69 4 32 3 11-16 11-54c-1-60 55-63 116-61 1-26-3-47-28-47-18 1-26 9-28 27l-52-2c7-38 36-58 82-57s74 22 75 68l1 82c-1 14 12 18 25 15v27c-30 8-71 5-69-32zm-48 3c29 0 43-24 42-57-32 0-66-3-65 30 0 17 8 27 23 27" id="N"/><path fill="#333" d="M88-194c31-1 46 15 58 34l-1-101h50l1 261h-48c-2-10 0-23-3-31C134-8 116 4 84 4 32 4 16-41 15-95c0-56 19-97 73-99zm17 164c33 0 40-30 41-66 1-37-9-64-41-64s-38 30-39 65c0 43 13 65 39 65" id="O"/><path fill="#333" d="M67-125c0 53 21 87 73 88 37 1 54-22 65-47l45 17C233-25 199 4 140 4 58 4 20-42 15-125 8-235 124-281 211-232c18 10 29 29 36 50l-46 12c-8-25-30-41-62-41-52 0-71 34-72 86" id="P"/><path fill="#333" d="M220-157c-53 9-28 100-34 157h-49v-107c1-27-5-49-29-50C55-147 81-57 75 0H25l-1-190h47c2 12-1 28 3 38 10-53 101-56 108 0 13-22 24-43 59-42 82 1 51 116 57 194h-49v-107c-1-25-5-48-29-50" id="Q"/><g id="g"><use transform="matrix(0.04938271604938272,0,0,0.04938271604938272,0,0)" xlink:href="#M"/><use transform="matrix(0.04938271604938272,0,0,0.04938271604938272,11.851851851851853,0)" xlink:href="#N"/><use transform="matrix(0.04938271604938272,0,0,0.04938271604938272,21.7283950617284,0)" xlink:href="#w"/><use transform="matrix(0.04938271604938272,0,0,0.04938271604938272,28.64197530864198,0)" xlink:href="#u"/><use transform="matrix(0.04938271604938272,0,0,0.04938271604938272,38.518518518518526,0)" xlink:href="#A"/><use transform="matrix(0.04938271604938272,0,0,0.04938271604938272,48.39506172839507,0)" xlink:href="#O"/><use transform="matrix(0.04938271604938272,0,0,0.04938271604938272,59.209876543209894,0)" xlink:href="#P"/><use transform="matrix(0.04938271604938272,0,0,0.04938271604938272,72.00000000000001,0)" xlink:href="#B"/><use transform="matrix(0.04938271604938272,0,0,0.04938271604938272,82.81481481481482,0)" xlink:href="#Q"/><use transform="matrix(0.04938271604938272,0,0,0.04938271604938272,98.61728395061729,0)" xlink:href="#Q"/><use transform="matrix(0.04938271604938272,0,0,0.04938271604938272,114.41975308641976,0)" xlink:href="#N"/><use transform="matrix(0.04938271604938272,0,0,0.04938271604938272,124.2962962962963,0)" xlink:href="#y"/><use transform="matrix(0.04938271604938272,0,0,0.04938271604938272,135.11111111111111,0)" xlink:href="#O"/></g><path fill="#3a414a" d="M30 0v-248h187v28H63v79h144v27H63v87h162V0H30" id="R"/><path fill="#3a414a" d="M141 0L90-78 38 0H4l68-98-65-92h35l48 74 47-74h35l-64 92 68 98h-35" id="S"/><path fill="#3a414a" d="M96-169c-40 0-48 33-48 73s9 75 48 75c24 0 41-14 43-38l32 2c-6 37-31 61-74 61-59 0-76-41-82-99-10-93 101-131 147-64 4 7 5 14 7 22l-32 3c-4-21-16-35-41-35" id="T"/><g id="h"><use transform="matrix(0.06172839506172839,0,0,0.06172839506172839,0,0)" xlink:href="#R"/><use transform="matrix(0.06172839506172839,0,0,0.06172839506172839,14.814814814814813,0)" xlink:href="#S"/><use transform="matrix(0.06172839506172839,0,0,0.06172839506172839,25.925925925925924,0)" xlink:href="#t"/><use transform="matrix(0.06172839506172839,0,0,0.06172839506172839,38.2716049382716,0)" xlink:href="#T"/><use transform="matrix(0.06172839506172839,0,0,0.06172839506172839,49.38271604938271,0)" xlink:href="#o"/><use transform="matrix(0.06172839506172839,0,0,0.06172839506172839,61.728395061728385,0)" xlink:href="#r"/><use transform="matrix(0.06172839506172839,0,0,0.06172839506172839,67.90123456790123,0)" xlink:href="#t"/></g><g id="i"><use transform="matrix(0.04938271604938272,0,0,0.04938271604938272,0,0)" xlink:href="#P"/><use transform="matrix(0.04938271604938272,0,0,0.04938271604938272,12.790123456790125,0)" xlink:href="#B"/><use transform="matrix(0.04938271604938272,0,0,0.04938271604938272,23.60493827160494,0)" xlink:href="#Q"/><use transform="matrix(0.04938271604938272,0,0,0.04938271604938272,39.40740740740741,0)" xlink:href="#Q"/><use transform="matrix(0.04938271604938272,0,0,0.04938271604938272,55.20987654320988,0)" xlink:href="#N"/><use transform="matrix(0.04938271604938272,0,0,0.04938271604938272,65.08641975308643,0)" xlink:href="#y"/><use transform="matrix(0.04938271604938272,0,0,0.04938271604938272,75.90123456790124,0)" xlink:href="#O"/></g><g id="j"><use transform="matrix(0.06172839506172839,0,0,0.06172839506172839,0,0)" xlink:href="#n"/><use transform="matrix(0.06172839506172839,0,0,0.06172839506172839,14.814814814814813,0)" xlink:href="#t"/><use transform="matrix(0.06172839506172839,0,0,0.06172839506172839,27.160493827160494,0)" xlink:href="#q"/><use transform="matrix(0.06172839506172839,0,0,0.06172839506172839,38.27160493827161,0)" xlink:href="#q"/><use transform="matrix(0.06172839506172839,0,0,0.06172839506172839,49.38271604938272,0)" xlink:href="#s"/><use transform="matrix(0.06172839506172839,0,0,0.06172839506172839,54.25925925925927,0)" xlink:href="#G"/><use transform="matrix(0.06172839506172839,0,0,0.06172839506172839,66.60493827160495,0)" xlink:href="#I"/></g><g id="k"><use transform="matrix(0.06172839506172839,0,0,0.06172839506172839,0,0)" xlink:href="#F"/><use transform="matrix(0.06172839506172839,0,0,0.06172839506172839,15.987654320987653,0)" xlink:href="#G"/><use transform="matrix(0.06172839506172839,0,0,0.06172839506172839,28.333333333333332,0)" xlink:href="#I"/><use transform="matrix(0.06172839506172839,0,0,0.06172839506172839,40.67901234567901,0)" xlink:href="#r"/><use transform="matrix(0.06172839506172839,0,0,0.06172839506172839,46.851851851851855,0)" xlink:href="#t"/><use transform="matrix(0.06172839506172839,0,0,0.06172839506172839,59.19753086419753,0)" xlink:href="#S"/><use transform="matrix(0.06172839506172839,0,0,0.06172839506172839,70.30864197530865,0)" xlink:href="#r"/></g><path fill="#3a414a" d="M33 0v-248h34V0H33" id="U"/><path fill="#3a414a" d="M115-194c55 1 70 41 70 98S169 2 115 4C84 4 66-9 55-30l1 105H24l-1-265h31l2 30c10-21 28-34 59-34zm-8 174c40 0 45-34 45-75s-6-73-45-74c-42 0-51 32-51 76 0 43 10 73 51 73" id="V"/><g id="l"><use transform="matrix(0.06172839506172839,0,0,0.06172839506172839,0,0)" xlink:href="#U"/><use transform="matrix(0.06172839506172839,0,0,0.06172839506172839,6.172839506172839,0)" xlink:href="#I"/><use transform="matrix(0.06172839506172839,0,0,0.06172839506172839,18.51851851851852,0)" xlink:href="#V"/><use transform="matrix(0.06172839506172839,0,0,0.06172839506172839,30.864197530864196,0)" xlink:href="#o"/><use transform="matrix(0.06172839506172839,0,0,0.06172839506172839,43.20987654320987,0)" xlink:href="#r"/></g><path fill="#3a414a" d="M140-251c81 0 123 46 123 126C263-46 219 4 140 4 59 4 17-45 17-125s42-126 123-126zm0 227c63 0 89-41 89-101s-29-99-89-99c-61 0-89 39-89 99S79-25 140-24" id="W"/><g id="m"><use transform="matrix(0.06172839506172839,0,0,0.06172839506172839,0,0)" xlink:href="#W"/><use transform="matrix(0.06172839506172839,0,0,0.06172839506172839,17.28395061728395,0)" xlink:href="#o"/><use transform="matrix(0.06172839506172839,0,0,0.06172839506172839,29.629629629629626,0)" xlink:href="#r"/><use transform="matrix(0.06172839506172839,0,0,0.06172839506172839,35.80246913580247,0)" xlink:href="#V"/><use transform="matrix(0.06172839506172839,0,0,0.06172839506172839,48.148148148148145,0)" xlink:href="#o"/><use transform="matrix(0.06172839506172839,0,0,0.06172839506172839,60.49382716049382,0)" xlink:href="#r"/></g></defs></g></svg>